<?xml version="1.0" encoding="utf-8"?>
<!-- Generator: Adobe Illustrator 18.1.1, SVG Export Plug-In . SVG Version: 6.00 Build 0)  -->
<!DOCTYPE svg PUBLIC "-//W3C//DTD SVG 1.1//EN" "http://www.w3.org/Graphics/SVG/1.1/DTD/svg11.dtd">
<svg version="1.1" id="Layer_1" xmlns="http://www.w3.org/2000/svg" xmlns:xlink="http://www.w3.org/1999/xlink" x="0px" y="0px"
	 viewBox="0 0 360 180" enable-background="new 0 0 360 180" xml:space="preserve">
<path id="center_1_" d="M255.1,25.3L217.2,97l-37.4,70.6l-37.5-70.8l-38-71.9h75.6H255 M264.9,21h-85h-85l42.5,79.4l42.5,79.7
	l42.5-79.5L264.9,21L264.9,21z"/>
<path d="M178.9,177c-2-2.4-2.6-5.2-4-7.9c-0.5-0.9-0.4-1.8,0-2.6L70.3,62.1L115.6,47c-1.2-1.1-2.3-2.5-3.7-3.6
	c-0.3-0.3-0.5-0.6-0.7-0.8L59.8,59.6l60.1,60.1l60.1,60.1l0.7-2C180.1,177.8,179.4,177.6,178.9,177z"/>
<polygon points="196.7,20.4 231.1,8.9 227.2,20.4 233.2,20.4 240,0 178.7,20.4 "/>
<path d="M132.5,20.4l-3.8-11.5l34.4,11.5h17.4c0.1,0,0.3,0,0.4,0L119.8,0l6.8,20.4H132.5z"/>
<path d="M247.5,42.1c1,1.9,0.9,4.2-0.1,5.9l42.3,14.1L184.9,166.7c0.8,1.6,0,4.1-2.4,4.1c-0.4,0.8-1.2,1.3-2.3,1.3c0,0,0,0,0,0
	c-0.2,1-1,1.9-2.2,2l1.9,5.6L300.2,59.6L247.5,42.1z"/>
<g>
	<g>
		<path d="M155.6,122.6c0.4,1.2,1.3,2.8,2,4.3c0,0,0,0,0,0c0.2,0.3,0.3,0.6,0.4,0.8c0.1,0.2,0.2,0.4,0.3,0.6c0,0,0,0,0,0
			c0.5,0.4,0.9,1,1.1,1.5c0.3,0.3,0.5,0.7,0.7,1l11-30.3l-4.2-12.3l-12,33C155.3,121.8,155.5,122.2,155.6,122.6z"/>
		<path d="M201.3,128.3c0.4-0.9,0.8-1.8,1.3-2.7c0.3-0.7,0.7-1.3,1.1-2c0.2-0.4,0.4-0.7,0.7-1.1c0.1-0.3,0.2-0.4,0.3-0.5
			c0.2-0.4,0.3-0.9,0.5-1.3l-25-68.3l-6.5,17.9l4.2,12.4l2.3-6.4l19.9,54.4c0.2-0.6,0.5-1.1,0.8-1.6
			C201,128.7,201.2,128.5,201.3,128.3z"/>
	</g>
	<g>
		<path d="M182.2,88.6l-2.3,6.3l-31-85l-3.6,3.5c-16.6,16-26.5,42.3-26.5,70.4c0,10.8,1.5,21.5,4.3,31.5c5,5,10,10,15,15
			c-7.5-13.2-11.6-29.6-11.6-46.5c0-22.5,7.3-43.7,19.6-57.8l33.8,92.7l6.5-17.8L182.2,88.6z"/>
		<path d="M221.6,130.4l15-15c0,0,0.1-0.1,0.1-0.1c2.8-10,4.3-20.7,4.3-31.6c0-28.1-9.9-54.4-26.5-70.4l-3.6-3.5L189,70l4.3,12.1
			l20.5-56.1c12.4,14.2,19.6,35.3,19.6,57.8C233.3,100.7,229.2,117.2,221.6,130.4z"/>
	</g>
</g>
</svg>
