<?xml version="1.0" encoding="utf-8"?>
<!-- Generator: Adobe Illustrator 18.1.1, SVG Export Plug-In . SVG Version: 6.00 Build 0)  -->
<!DOCTYPE svg PUBLIC "-//W3C//DTD SVG 1.1//EN" "http://www.w3.org/Graphics/SVG/1.1/DTD/svg11.dtd">
<svg version="1.1" id="Layer_1" xmlns="http://www.w3.org/2000/svg" xmlns:xlink="http://www.w3.org/1999/xlink" x="0px" y="0px"
	 viewBox="0 0 175 45" enable-background="new 0 0 175 45" xml:space="preserve">
<path id="center_1_" fill="#F2F2F2" d="M48.9,6.7l-9.5,17.8L30,42.1l-9.4-17.4L11.1,7H30h19 M51.3,5H30H8.8l10.6,20l10.6,20l10.6-20
	L51.3,5L51.3,5z"/>
<path fill="#F2F2F2" d="M29.8,44.4c-0.5-0.6-0.7-1.3-1-2c-0.1-0.2-0.1-0.5,0-0.6L2.6,15.6L13.4,12c-0.3-0.3-0.5-0.7-0.7-0.9
	c-0.1-0.1-0.1-0.2-0.1-0.3L0,15l15,15l15,15l0.2-0.5C30.1,44.6,29.9,44.5,29.8,44.4z"/>
<polygon fill="#F2F2F2" points="34.2,5.2 42.8,2.3 41.9,5.2 43.3,5.2 45.1,0.1 29.7,5.2 "/>
<path fill="#F2F2F2" d="M18.2,5.2l-1-2.9l8.6,2.9h4.3c0,0,0.1,0,0.1,0L15,0.1l1.7,5.1H18.2z"/>
<path fill="#F2F2F2" d="M46.9,10.6c0.2,0.5,0.2,1.1,0,1.5l10.6,3.5L31.3,41.8c0.2,0.4,0,1-0.6,1c-0.1,0.2-0.3,0.3-0.6,0.3
	c0,0,0,0,0,0c-0.1,0.3-0.2,0.5-0.6,0.5l0.5,1.4L60.1,15L46.9,10.6z"/>
<g>
	<g>
		<path fill="#F2F2F2" d="M23.9,30.8c0.1,0.3,0.3,0.7,0.5,1.1c0,0,0,0,0,0c0,0.1,0.1,0.1,0.1,0.2c0,0,0,0.1,0.1,0.1c0,0,0,0,0,0
			c0.1,0.1,0.2,0.2,0.3,0.4c0.1,0.1,0.1,0.2,0.2,0.3l2.8-7.6l-1-3.1l-3,8.3C23.9,30.6,23.9,30.7,23.9,30.8z"/>
		<path fill="#F2F2F2" d="M35.4,32.2c0.1-0.2,0.2-0.5,0.3-0.7c0.1-0.2,0.2-0.3,0.3-0.5c0.1-0.1,0.1-0.2,0.2-0.3
			c0-0.1,0.1-0.1,0.1-0.1c0-0.1,0.1-0.2,0.1-0.3l-6.2-17.1l-1.6,4.5l1,3.1l0.6-1.6l5,13.6c0-0.1,0.1-0.3,0.2-0.4
			C35.3,32.3,35.3,32.2,35.4,32.2z"/>
	</g>
	<g>
		<path fill="#F2F2F2" d="M30.6,22.3L30,23.8L22.3,2.5l-0.9,0.9c-4.1,4-6.6,10.6-6.6,17.6c0,2.7,0.4,5.4,1.1,7.9
			c1.3,1.3,2.5,2.5,3.8,3.8c-1.9-3.3-2.9-7.4-2.9-11.6c0-5.6,1.8-10.9,4.9-14.5L30,29.8l1.6-4.5L30.6,22.3z"/>
		<path fill="#F2F2F2" d="M40.4,32.7l3.7-3.7c0,0,0,0,0,0c0.7-2.5,1.1-5.2,1.1-7.9c0-7-2.5-13.6-6.6-17.6l-0.9-0.9l-5.5,15.1l1.1,3
			l5.1-14c3.1,3.5,4.9,8.8,4.9,14.5C43.4,25.3,42.3,29.4,40.4,32.7z"/>
	</g>
</g>
<g>
	<path fill="#F2F2F2" d="M94.1,6.8v26.9h-3V11.4l-10,12.8L71,11.4v22.3h-3V6.8h3.5l9.6,12.8l9.5-12.8H94.1z"/>
	<path fill="#F2F2F2" d="M105.5,41.7h-3.3l3.7-8.3l-8.3-20h3.4l6.5,16.7l6.7-16.7h3.3L105.5,41.7z"/>
	<path fill="#F2F2F2" d="M129.2,23.2l7.9,10.5h-3.9l-5.7-8.3l-5.8,8.3h-3.9l7.8-10.5l-7.4-9.8h3.9l5.2,7.7l5.2-7.7h3.9L129.2,23.2z"
		/>
	<path fill="#F2F2F2" d="M145.3,41.7H142l3.7-8.3l-8.3-20h3.4l6.5,16.7l6.7-16.7h3.3L145.3,41.7z"/>
	<path fill="#F2F2F2" d="M165.3,6.7c-1,0-2,0-3,0v6.6h-4.1V16h4.1v17.6h3V16h4.7v-2.7h-4.7V6.7z"/>
</g>
<path fill="#F2F2F2" d="M157.3,6.8H97.6c0,0.8-0.1,1.7-0.1,2.5h59.7C157.3,8.4,157.3,7.6,157.3,6.8z"/>
</svg>
